# Blender v2.78 (sub 0) OBJ File: 'defence_tower.blen.blend'
# www.blender.org
mtllib floor.mtl
o Floor
v -3.879203 -0.203231 3.563565
v -3.879203 0.481556 3.563565
v 4.164547 0.481556 3.561187
v 3.912936 -0.203231 -3.563565
v 3.912936 0.476709 -3.563565
v -3.964378 -0.126856 -1.781783
v -3.964378 -0.126856 0.000000
v -3.952825 -0.126856 1.781783
v -3.952825 0.433621 1.781783
v -3.964378 0.433621 0.000000
v -3.964378 0.433621 -1.781783
v 3.952825 -0.126856 1.781783
v 3.952825 -0.126856 0.000000
v 3.952825 -0.126856 -1.781783
v 3.952825 0.433621 -1.781783
v 3.952825 0.433621 0.000000
v 3.952825 0.433621 1.781783
v -4.128697 0.433621 -1.781783
v -4.128697 0.476709 -3.563565
v -4.128697 -0.203231 -3.563565
v -4.128697 -0.126856 -1.781783
v -4.189642 -0.126856 0.001535
v -4.085107 -0.126856 1.780248
v -4.085107 0.433621 1.780248
v -4.189642 0.433621 0.001535
v 4.093442 0.433621 1.784161
v 4.164547 -0.203231 3.561187
v 4.093442 -0.126856 1.784161
v 4.107699 -0.126856 0.000000
v 4.107699 -0.126856 -1.781783
v 4.107699 0.433621 -1.781783
v 4.107699 0.433621 0.000000
vt 0.1718 0.7888
vt 0.1546 0.9645
vt 0.1557 0.7888
vt 0.0430 0.1737
vt 0.1097 0.1737
vt 0.1097 0.9652
vt 0.0430 0.9652
vt 0.3885 0.0405
vt 0.3885 0.0940
vt 0.3641 0.0941
vt 0.3641 0.0405
vt 0.0430 0.1737
vt 0.1097 0.1737
vt 0.1097 0.9652
vt 0.0430 0.9652
vt 0.1730 0.4395
vt 0.9480 0.4395
vt 0.9703 0.2637
vt 0.1790 0.2637
vt 0.9480 0.4395
vt 0.1730 0.4395
vt 0.1790 0.2637
vt 0.9703 0.2637
vt 0.9454 0.9645
vt 0.9480 0.7888
vt 0.1718 0.6141
vt 0.9480 0.6141
vt 0.1546 0.9645
vt 0.9454 0.9645
vt 0.9480 0.7888
vt 0.1718 0.7888
vt 0.9480 0.6141
vt 0.1718 0.6141
vt 0.9115 0.0331
vt 0.9115 0.0982
vt 0.7534 0.0940
vt 0.7534 0.0404
vt 0.7290 0.0940
vt 0.7290 0.0405
vt 0.5465 0.0405
vt 0.5465 0.0940
vt 0.9115 0.1525
vt 0.9115 0.2175
vt 0.7534 0.2134
vt 0.7534 0.1598
vt 0.7290 0.2134
vt 0.7290 0.1598
vt 0.5465 0.1598
vt 0.5465 0.2134
vt 0.3885 0.2134
vt 0.3885 0.1598
vt 0.3641 0.1598
vt 0.3641 0.2134
vt 0.2063 0.2180
vt 0.2063 0.1525
vt 0.1557 0.7888
vt 0.5709 0.2134
vt 0.5709 0.1598
vt 0.1498 0.6140
vt 0.1600 0.4396
vt 0.1600 0.4396
vt 0.1498 0.6140
vt 0.2063 0.0986
vt 0.2063 0.0332
vt 0.9618 0.4392
vt 0.9618 0.4392
vt 0.5709 0.0940
vt 0.5709 0.0405
vt 0.9632 0.6141
vt 0.9632 0.7888
vt 0.9632 0.7888
vt 0.9632 0.6141
vn 0.0000 0.9997 0.0242
vn 0.0000 0.0000 -1.0000
vn 0.0169 0.0000 -0.9999
vn 0.0003 0.0000 1.0000
vn -0.0000 -0.9991 -0.0429
vn -0.0000 0.9996 -0.0269
vn 0.0000 1.0000 0.0000
vn 0.0000 -0.9991 0.0428
vn 0.0000 -1.0000 0.0000
vn 0.9997 0.0000 -0.0224
vn 1.0000 0.0000 0.0000
vn -0.9991 0.0000 0.0413
vn -0.0116 0.0000 0.9999
vn -1.0000 0.0000 0.0000
vn 0.0000 0.0000 1.0000
vn -0.9983 0.0000 0.0587
vn -0.0068 0.0000 -1.0000
vn 0.9992 0.0000 -0.0400
vn 0.0005 0.9996 -0.0270
vn 0.0007 -0.9991 -0.0430
usemtl None
s off
f 11/1/1 19/2/1 18/3/1
f 20/4/2 19/5/2 5/6/2 4/7/2
f 12/8/3 17/9/3 26/10/3 28/11/3
f 27/12/4 3/13/4 2/14/4 1/15/4
f 8/16/5 12/17/5 27/18/5 1/19/5
f 17/20/6 9/21/6 2/22/6 3/23/6
f 5/24/1 19/2/1 11/1/1 15/25/1
f 15/25/7 11/1/7 10/26/7 16/27/7
f 16/27/7 10/26/7 9/21/7 17/20/7
f 20/28/8 4/29/8 14/30/8 6/31/8
f 6/31/9 14/30/9 13/32/9 7/33/9
f 7/33/9 13/32/9 12/17/9 8/16/9
f 4/34/10 5/35/10 15/36/10 14/37/10
f 14/37/2 15/36/2 31/38/2 30/39/2
f 13/40/11 16/41/11 17/9/11 12/8/11
f 1/42/12 2/43/12 9/44/12 8/45/12
f 8/45/13 9/44/13 24/46/13 23/47/13
f 7/48/14 10/49/14 11/50/14 6/51/14
f 21/52/14 18/53/14 19/54/14 20/55/14
f 6/51/15 11/50/15 18/53/15 21/52/15
f 20/28/8 6/31/8 21/56/8
f 23/47/16 24/46/16 25/57/16 22/58/16
f 9/21/7 10/26/7 25/59/7 24/60/7
f 7/33/9 8/16/9 23/61/9 22/62/9
f 10/49/17 7/48/17 22/58/17 25/57/17
f 28/11/18 26/10/18 3/63/18 27/64/18
f 17/20/19 3/23/19 26/65/19
f 27/18/20 12/17/20 28/66/20
f 30/39/11 31/38/11 32/67/11 29/68/11
f 15/25/7 16/27/7 32/69/7 31/70/7
f 13/32/9 14/30/9 30/71/9 29/72/9
f 16/41/15 13/40/15 29/68/15 32/67/15
